solid OpenSCAD_Model
  facet normal 0.987687 0.15644 0
    outer loop
      vertex 4.7625 0 3.175
      vertex 4.5294 1.47169 0
      vertex 4.5294 1.47169 3.175
    endloop
  endfacet
  facet normal 0.987687 0.15644 0
    outer loop
      vertex 4.5294 1.47169 0
      vertex 4.7625 0 3.175
      vertex 4.7625 0 0
    endloop
  endfacet
  facet normal -0.987687 0.15644 0
    outer loop
      vertex -4.7625 0 0
      vertex -4.5294 1.47169 3.175
      vertex -4.5294 1.47169 0
    endloop
  endfacet
  facet normal -0.987687 0.15644 0
    outer loop
      vertex -4.5294 1.47169 3.175
      vertex -4.7625 0 0
      vertex -4.7625 0 3.175
    endloop
  endfacet
  facet normal 0.15644 0.987687 -0
    outer loop
      vertex 1.47169 4.5294 0
      vertex 0 4.7625 3.175
      vertex 1.47169 4.5294 3.175
    endloop
  endfacet
  facet normal 0.15644 0.987687 0
    outer loop
      vertex 0 4.7625 3.175
      vertex 1.47169 4.5294 0
      vertex 0 4.7625 0
    endloop
  endfacet
  facet normal 0 0 -1
    outer loop
      vertex 47.1498 -4.7625 0
      vertex 4.7625 0 0
      vertex 94.7748 0 0
    endloop
  endfacet
  facet normal 0 0 -1
    outer loop
      vertex 1.88724 0.613189 0
      vertex 4.5294 1.47169 0
      vertex 4.7625 0 0
    endloop
  endfacet
  facet normal -0 0 -1
    outer loop
      vertex 4.5294 1.47169 0
      vertex 1.88724 0.613189 0
      vertex 3.85294 2.79932 0
    endloop
  endfacet
  facet normal 0 0 -1
    outer loop
      vertex 1.88724 0.613189 0
      vertex 4.7625 0 0
      vertex 1.98438 0 0
    endloop
  endfacet
  facet normal 0 0 -1
    outer loop
      vertex 1.16638 -1.60538 0
      vertex 4.7625 0 0
      vertex 47.1498 -4.7625 0
    endloop
  endfacet
  facet normal -0 0 -1
    outer loop
      vertex 4.7625 0 0
      vertex 1.88724 -0.613189 0
      vertex 1.98438 0 0
    endloop
  endfacet
  facet normal 0 0 -1
    outer loop
      vertex 4.7625 0 0
      vertex 1.60538 -1.16638 0
      vertex 1.88724 -0.613189 0
    endloop
  endfacet
  facet normal 0 0 -1
    outer loop
      vertex 4.7625 0 0
      vertex 1.16638 -1.60538 0
      vertex 1.60538 -1.16638 0
    endloop
  endfacet
  facet normal 0 0 -1
    outer loop
      vertex 47.1498 -4.7625 0
      vertex 0.613189 -1.88724 0
      vertex 1.16638 -1.60538 0
    endloop
  endfacet
  facet normal 0 0 -1
    outer loop
      vertex 47.1498 -4.7625 0
      vertex 0 -1.98438 0
      vertex 0.613189 -1.88724 0
    endloop
  endfacet
  facet normal 0 0 -1
    outer loop
      vertex -4.7625 0 0
      vertex -1.98438 0 0
      vertex -1.88724 -0.613189 0
    endloop
  endfacet
  facet normal 0 0 -1
    outer loop
      vertex -1.98438 0 0
      vertex -3.85294 2.79932 0
      vertex -2.79932 3.85294 0
    endloop
  endfacet
  facet normal 0 0 -1
    outer loop
      vertex -4.7625 0 0
      vertex -1.88724 -0.613189 0
      vertex -1.60538 -1.16638 0
    endloop
  endfacet
  facet normal 0 0 -1
    outer loop
      vertex -1.98438 0 0
      vertex -4.5294 1.47169 0
      vertex -3.85294 2.79932 0
    endloop
  endfacet
  facet normal 0 0 -1
    outer loop
      vertex -4.7625 0 0
      vertex -1.60538 -1.16638 0
      vertex -1.16638 -1.60538 0
    endloop
  endfacet
  facet normal 0 0 -1
    outer loop
      vertex -1.98438 0 0
      vertex -4.7625 0 0
      vertex -4.5294 1.47169 0
    endloop
  endfacet
  facet normal 0 0 -1
    outer loop
      vertex -0.613189 -1.88724 0
      vertex -4.7625 0 0
      vertex -1.16638 -1.60538 0
    endloop
  endfacet
  facet normal 0 0 -1
    outer loop
      vertex -47.1498 -4.7625 0
      vertex 0 -1.98438 0
      vertex 47.1498 -4.7625 0
    endloop
  endfacet
  facet normal 0 0 -1
    outer loop
      vertex -47.1498 -4.7625 0
      vertex -0.613189 -1.88724 0
      vertex 0 -1.98438 0
    endloop
  endfacet
  facet normal 0 0 -1
    outer loop
      vertex -47.1498 -4.7625 0
      vertex -4.7625 0 0
      vertex -0.613189 -1.88724 0
    endloop
  endfacet
  facet normal -0 0 -1
    outer loop
      vertex -4.7625 0 0
      vertex -47.1498 -4.7625 0
      vertex -94.7748 0 0
    endloop
  endfacet
  facet normal 0 0 -1
    outer loop
      vertex 1.60538 1.16638 0
      vertex 3.85294 2.79932 0
      vertex 1.88724 0.613189 0
    endloop
  endfacet
  facet normal -0 0 -1
    outer loop
      vertex 3.85294 2.79932 0
      vertex 1.60538 1.16638 0
      vertex 2.79932 3.85294 0
    endloop
  endfacet
  facet normal 0 0 -1
    outer loop
      vertex 1.16638 1.60538 0
      vertex 2.79932 3.85294 0
      vertex 1.60538 1.16638 0
    endloop
  endfacet
  facet normal -0 0 -1
    outer loop
      vertex 2.79932 3.85294 0
      vertex 1.16638 1.60538 0
      vertex 1.47169 4.5294 0
    endloop
  endfacet
  facet normal 0 0 -1
    outer loop
      vertex 0.613189 1.88724 0
      vertex 1.47169 4.5294 0
      vertex 1.16638 1.60538 0
    endloop
  endfacet
  facet normal 0 0 -1
    outer loop
      vertex 0 1.98438 0
      vertex 1.47169 4.5294 0
      vertex 0.613189 1.88724 0
    endloop
  endfacet
  facet normal 0 0 -1
    outer loop
      vertex 0 1.98438 0
      vertex 0 4.7625 0
      vertex 1.47169 4.5294 0
    endloop
  endfacet
  facet normal 0 0 -1
    outer loop
      vertex -0.613189 1.88724 0
      vertex 0 4.7625 0
      vertex 0 1.98438 0
    endloop
  endfacet
  facet normal 0 0 -1
    outer loop
      vertex -1.47169 4.5294 0
      vertex -0.613189 1.88724 0
      vertex -1.16638 1.60538 0
    endloop
  endfacet
  facet normal 0 0 -1
    outer loop
      vertex -0.613189 1.88724 0
      vertex -1.47169 4.5294 0
      vertex 0 4.7625 0
    endloop
  endfacet
  facet normal 0 0 -1
    outer loop
      vertex -2.79932 3.85294 0
      vertex -1.16638 1.60538 0
      vertex -1.60538 1.16638 0
    endloop
  endfacet
  facet normal 0 0 -1
    outer loop
      vertex -2.79932 3.85294 0
      vertex -1.60538 1.16638 0
      vertex -1.88724 0.613189 0
    endloop
  endfacet
  facet normal 0 0 -1
    outer loop
      vertex -2.79932 3.85294 0
      vertex -1.88724 0.613189 0
      vertex -1.98438 0 0
    endloop
  endfacet
  facet normal 0 0 -1
    outer loop
      vertex -1.16638 1.60538 0
      vertex -2.79932 3.85294 0
      vertex -1.47169 4.5294 0
    endloop
  endfacet
  facet normal 0.707107 0.707107 0
    outer loop
      vertex 3.85294 2.79932 3.175
      vertex 2.79932 3.85294 0
      vertex 2.79932 3.85294 3.175
    endloop
  endfacet
  facet normal 0.707107 0.707107 0
    outer loop
      vertex 2.79932 3.85294 0
      vertex 3.85294 2.79932 3.175
      vertex 3.85294 2.79932 0
    endloop
  endfacet
  facet normal 0.891007 0.45399 0
    outer loop
      vertex 4.5294 1.47169 3.175
      vertex 3.85294 2.79932 0
      vertex 3.85294 2.79932 3.175
    endloop
  endfacet
  facet normal 0.891007 0.45399 0
    outer loop
      vertex 3.85294 2.79932 0
      vertex 4.5294 1.47169 3.175
      vertex 4.5294 1.47169 0
    endloop
  endfacet
  facet normal 0.45399 0.891007 -0
    outer loop
      vertex 2.79932 3.85294 0
      vertex 1.47169 4.5294 3.175
      vertex 2.79932 3.85294 3.175
    endloop
  endfacet
  facet normal 0.45399 0.891007 0
    outer loop
      vertex 1.47169 4.5294 3.175
      vertex 2.79932 3.85294 0
      vertex 1.47169 4.5294 0
    endloop
  endfacet
  facet normal -0.45399 0.891007 0
    outer loop
      vertex -1.47169 4.5294 0
      vertex -2.79932 3.85294 3.175
      vertex -1.47169 4.5294 3.175
    endloop
  endfacet
  facet normal -0.45399 0.891007 0
    outer loop
      vertex -2.79932 3.85294 3.175
      vertex -1.47169 4.5294 0
      vertex -2.79932 3.85294 0
    endloop
  endfacet
  facet normal -0.707107 0.707107 0
    outer loop
      vertex -3.85294 2.79932 0
      vertex -2.79932 3.85294 3.175
      vertex -2.79932 3.85294 0
    endloop
  endfacet
  facet normal -0.707107 0.707107 0
    outer loop
      vertex -2.79932 3.85294 3.175
      vertex -3.85294 2.79932 0
      vertex -3.85294 2.79932 3.175
    endloop
  endfacet
  facet normal -0.15644 0.987687 0
    outer loop
      vertex 0 4.7625 0
      vertex -1.47169 4.5294 3.175
      vertex 0 4.7625 3.175
    endloop
  endfacet
  facet normal -0.15644 0.987687 0
    outer loop
      vertex -1.47169 4.5294 3.175
      vertex 0 4.7625 0
      vertex -1.47169 4.5294 0
    endloop
  endfacet
  facet normal -0.891007 0.45399 0
    outer loop
      vertex -4.5294 1.47169 0
      vertex -3.85294 2.79932 3.175
      vertex -3.85294 2.79932 0
    endloop
  endfacet
  facet normal -0.891007 0.45399 0
    outer loop
      vertex -3.85294 2.79932 3.175
      vertex -4.5294 1.47169 0
      vertex -4.5294 1.47169 3.175
    endloop
  endfacet
  facet normal 0 0 1
    outer loop
      vertex 4.5294 1.47169 3.175
      vertex 1.88724 0.613189 3.175
      vertex 1.98438 0 3.175
    endloop
  endfacet
  facet normal 0 0 1
    outer loop
      vertex 3.85294 2.79932 3.175
      vertex 1.60538 1.16638 3.175
      vertex 1.88724 0.613189 3.175
    endloop
  endfacet
  facet normal 0 0 1
    outer loop
      vertex 1.16638 1.60538 3.175
      vertex 2.79932 3.85294 3.175
      vertex 1.47169 4.5294 3.175
    endloop
  endfacet
  facet normal 0 0 1
    outer loop
      vertex 2.79932 3.85294 3.175
      vertex 1.16638 1.60538 3.175
      vertex 1.60538 1.16638 3.175
    endloop
  endfacet
  facet normal 0 0 1
    outer loop
      vertex 1.47169 4.5294 3.175
      vertex 0.613189 1.88724 3.175
      vertex 1.16638 1.60538 3.175
    endloop
  endfacet
  facet normal 0 0 1
    outer loop
      vertex 0 4.7625 3.175
      vertex 0.613189 1.88724 3.175
      vertex 1.47169 4.5294 3.175
    endloop
  endfacet
  facet normal 0 0 1
    outer loop
      vertex 0 4.7625 3.175
      vertex 0 1.98438 3.175
      vertex 0.613189 1.88724 3.175
    endloop
  endfacet
  facet normal 0 0 1
    outer loop
      vertex 0 4.7625 3.175
      vertex -0.613189 1.88724 3.175
      vertex 0 1.98438 3.175
    endloop
  endfacet
  facet normal -0 0 1
    outer loop
      vertex -1.47169 4.5294 3.175
      vertex -0.613189 1.88724 3.175
      vertex 0 4.7625 3.175
    endloop
  endfacet
  facet normal 0 0 1
    outer loop
      vertex -0.613189 1.88724 3.175
      vertex -1.47169 4.5294 3.175
      vertex -1.16638 1.60538 3.175
    endloop
  endfacet
  facet normal -0 0 1
    outer loop
      vertex -2.79932 3.85294 3.175
      vertex -1.16638 1.60538 3.175
      vertex -1.47169 4.5294 3.175
    endloop
  endfacet
  facet normal 0 0 1
    outer loop
      vertex -1.16638 1.60538 3.175
      vertex -2.79932 3.85294 3.175
      vertex -1.60538 1.16638 3.175
    endloop
  endfacet
  facet normal -0 0 1
    outer loop
      vertex -3.85294 2.79932 3.175
      vertex -1.60538 1.16638 3.175
      vertex -2.79932 3.85294 3.175
    endloop
  endfacet
  facet normal 0 0 1
    outer loop
      vertex -1.60538 1.16638 3.175
      vertex -3.85294 2.79932 3.175
      vertex -1.88724 0.613189 3.175
    endloop
  endfacet
  facet normal 0 0 1
    outer loop
      vertex 78.105 0 3.175
      vertex 47.1498 -4.7625 3.175
      vertex 78.105 -1.66698 3.175
    endloop
  endfacet
  facet normal -0 0 1
    outer loop
      vertex 4.7625 0 3.175
      vertex 47.1498 -4.7625 3.175
      vertex 78.105 0 3.175
    endloop
  endfacet
  facet normal 0 0 1
    outer loop
      vertex 1.88724 0.613189 3.175
      vertex 4.5294 1.47169 3.175
      vertex 3.85294 2.79932 3.175
    endloop
  endfacet
  facet normal 0 0 1
    outer loop
      vertex 1.60538 1.16638 3.175
      vertex 3.85294 2.79932 3.175
      vertex 2.79932 3.85294 3.175
    endloop
  endfacet
  facet normal 0 0 1
    outer loop
      vertex 4.5294 1.47169 3.175
      vertex 1.98438 0 3.175
      vertex 4.7625 0 3.175
    endloop
  endfacet
  facet normal 0 0 1
    outer loop
      vertex 1.88724 -0.613189 3.175
      vertex 4.7625 0 3.175
      vertex 1.98438 0 3.175
    endloop
  endfacet
  facet normal 0 0 1
    outer loop
      vertex 1.60538 -1.16638 3.175
      vertex 4.7625 0 3.175
      vertex 1.88724 -0.613189 3.175
    endloop
  endfacet
  facet normal 0 0 1
    outer loop
      vertex 1.16638 -1.60538 3.175
      vertex 4.7625 0 3.175
      vertex 1.60538 -1.16638 3.175
    endloop
  endfacet
  facet normal 0 0 1
    outer loop
      vertex 4.7625 0 3.175
      vertex 1.16638 -1.60538 3.175
      vertex 47.1498 -4.7625 3.175
    endloop
  endfacet
  facet normal -0 0 1
    outer loop
      vertex 0.613189 -1.88724 3.175
      vertex 47.1498 -4.7625 3.175
      vertex 1.16638 -1.60538 3.175
    endloop
  endfacet
  facet normal -0 0 1
    outer loop
      vertex 0 -1.98438 3.175
      vertex 47.1498 -4.7625 3.175
      vertex 0.613189 -1.88724 3.175
    endloop
  endfacet
  facet normal -0 0 1
    outer loop
      vertex -4.5294 1.47169 3.175
      vertex -1.88724 0.613189 3.175
      vertex -3.85294 2.79932 3.175
    endloop
  endfacet
  facet normal 0 0 1
    outer loop
      vertex -1.88724 0.613189 3.175
      vertex -4.5294 1.47169 3.175
      vertex -1.98438 0 3.175
    endloop
  endfacet
  facet normal 0 0 1
    outer loop
      vertex -4.7625 0 3.175
      vertex -1.98438 0 3.175
      vertex -4.5294 1.47169 3.175
    endloop
  endfacet
  facet normal 0 0 1
    outer loop
      vertex -1.98438 0 3.175
      vertex -4.7625 0 3.175
      vertex -1.88724 -0.613189 3.175
    endloop
  endfacet
  facet normal 0 0 1
    outer loop
      vertex -1.88724 -0.613189 3.175
      vertex -4.7625 0 3.175
      vertex -1.60538 -1.16638 3.175
    endloop
  endfacet
  facet normal 0 0 1
    outer loop
      vertex -1.60538 -1.16638 3.175
      vertex -4.7625 0 3.175
      vertex -1.16638 -1.60538 3.175
    endloop
  endfacet
  facet normal 0 0 1
    outer loop
      vertex -4.7625 0 3.175
      vertex -0.613189 -1.88724 3.175
      vertex -1.16638 -1.60538 3.175
    endloop
  endfacet
  facet normal 0 0 1
    outer loop
      vertex 0 -1.98438 3.175
      vertex -47.1498 -4.7625 3.175
      vertex 47.1498 -4.7625 3.175
    endloop
  endfacet
  facet normal 0 0 1
    outer loop
      vertex -0.613189 -1.88724 3.175
      vertex -47.1498 -4.7625 3.175
      vertex 0 -1.98438 3.175
    endloop
  endfacet
  facet normal 0 0 1
    outer loop
      vertex -4.7625 0 3.175
      vertex -47.1498 -4.7625 3.175
      vertex -0.613189 -1.88724 3.175
    endloop
  endfacet
  facet normal -0 0 1
    outer loop
      vertex -78.105 0 3.175
      vertex -47.1498 -4.7625 3.175
      vertex -4.7625 0 3.175
    endloop
  endfacet
  facet normal 0 0 1
    outer loop
      vertex -47.1498 -4.7625 3.175
      vertex -78.105 0 3.175
      vertex -78.105 -1.66698 3.175
    endloop
  endfacet
  facet normal 0 -1 0
    outer loop
      vertex -47.1498 -4.7625 0
      vertex 47.1498 -4.7625 3.175
      vertex -47.1498 -4.7625 3.175
    endloop
  endfacet
  facet normal 0 -1 -0
    outer loop
      vertex 47.1498 -4.7625 3.175
      vertex -47.1498 -4.7625 0
      vertex 47.1498 -4.7625 0
    endloop
  endfacet
  facet normal 0 1 0
    outer loop
      vertex -4.7625 0 3.175
      vertex -4.7625 0 0
      vertex -78.105 0 3.175
    endloop
  endfacet
  facet normal 0 1 -0
    outer loop
      vertex -78.105 0 3.175
      vertex -94.7748 0 9.525
      vertex -78.105 0 9.525
    endloop
  endfacet
  facet normal 0 1 0
    outer loop
      vertex -78.105 0 3.175
      vertex -94.7748 0 0
      vertex -94.7748 0 9.525
    endloop
  endfacet
  facet normal 0 1 0
    outer loop
      vertex -94.7748 0 0
      vertex -78.105 0 3.175
      vertex -4.7625 0 0
    endloop
  endfacet
  facet normal 0 1 0
    outer loop
      vertex 94.7748 0 9.525
      vertex 78.105 0 3.175
      vertex 78.105 0 9.525
    endloop
  endfacet
  facet normal 0 1 -0
    outer loop
      vertex 94.7748 0 0
      vertex 78.105 0 3.175
      vertex 94.7748 0 9.525
    endloop
  endfacet
  facet normal 0 1 0
    outer loop
      vertex 4.7625 0 0
      vertex 78.105 0 3.175
      vertex 94.7748 0 0
    endloop
  endfacet
  facet normal 0 1 0
    outer loop
      vertex 78.105 0 3.175
      vertex 4.7625 0 0
      vertex 4.7625 0 3.175
    endloop
  endfacet
  facet normal -1 0 0
    outer loop
      vertex 78.105 -1.66698 3.175
      vertex 78.105 0 9.525
      vertex 78.105 0 3.175
    endloop
  endfacet
  facet normal -1 -0 0
    outer loop
      vertex 78.105 0 9.525
      vertex 78.105 -1.66698 3.175
      vertex 78.105 -1.66698 9.525
    endloop
  endfacet
  facet normal -0 0 1
    outer loop
      vertex 78.105 0 9.525
      vertex 78.105 -1.66698 9.525
      vertex 94.7748 0 9.525
    endloop
  endfacet
  facet normal 0 0 1
    outer loop
      vertex -78.105 0 9.525
      vertex -94.7748 0 9.525
      vertex -78.105 -1.66698 9.525
    endloop
  endfacet
  facet normal 1 -0 0
    outer loop
      vertex -78.105 -1.66698 9.525
      vertex -78.105 0 3.175
      vertex -78.105 0 9.525
    endloop
  endfacet
  facet normal 1 0 0
    outer loop
      vertex -78.105 0 3.175
      vertex -78.105 -1.66698 9.525
      vertex -78.105 -1.66698 3.175
    endloop
  endfacet
  facet normal -0.987684 -0.156459 0
    outer loop
      vertex 1.98438 0 0
      vertex 1.88724 0.613189 3.175
      vertex 1.88724 0.613189 0
    endloop
  endfacet
  facet normal -0.987684 -0.156459 0
    outer loop
      vertex 1.88724 0.613189 3.175
      vertex 1.98438 0 0
      vertex 1.98438 0 3.175
    endloop
  endfacet
  facet normal -0.453989 -0.891007 0
    outer loop
      vertex 0.613189 1.88724 0
      vertex 1.16638 1.60538 3.175
      vertex 0.613189 1.88724 3.175
    endloop
  endfacet
  facet normal -0.453989 -0.891007 -0
    outer loop
      vertex 1.16638 1.60538 3.175
      vertex 0.613189 1.88724 0
      vertex 1.16638 1.60538 0
    endloop
  endfacet
  facet normal 0.453989 0.891007 -0
    outer loop
      vertex -0.613189 -1.88724 0
      vertex -1.16638 -1.60538 3.175
      vertex -0.613189 -1.88724 3.175
    endloop
  endfacet
  facet normal 0.453989 0.891007 0
    outer loop
      vertex -1.16638 -1.60538 3.175
      vertex -0.613189 -1.88724 0
      vertex -1.16638 -1.60538 0
    endloop
  endfacet
  facet normal -0.707107 -0.707107 0
    outer loop
      vertex 1.60538 1.16638 0
      vertex 1.16638 1.60538 3.175
      vertex 1.16638 1.60538 0
    endloop
  endfacet
  facet normal -0.707107 -0.707107 0
    outer loop
      vertex 1.16638 1.60538 3.175
      vertex 1.60538 1.16638 0
      vertex 1.60538 1.16638 3.175
    endloop
  endfacet
  facet normal -0.891007 -0.453989 0
    outer loop
      vertex 1.88724 0.613189 0
      vertex 1.60538 1.16638 3.175
      vertex 1.60538 1.16638 0
    endloop
  endfacet
  facet normal -0.891007 -0.453989 0
    outer loop
      vertex 1.60538 1.16638 3.175
      vertex 1.88724 0.613189 0
      vertex 1.88724 0.613189 3.175
    endloop
  endfacet
  facet normal -0.156459 -0.987684 0
    outer loop
      vertex 0 1.98438 0
      vertex 0.613189 1.88724 3.175
      vertex 0 1.98438 3.175
    endloop
  endfacet
  facet normal -0.156459 -0.987684 -0
    outer loop
      vertex 0.613189 1.88724 3.175
      vertex 0 1.98438 0
      vertex 0.613189 1.88724 0
    endloop
  endfacet
  facet normal 0.156459 -0.987684 0
    outer loop
      vertex -0.613189 1.88724 0
      vertex 0 1.98438 3.175
      vertex -0.613189 1.88724 3.175
    endloop
  endfacet
  facet normal 0.156459 -0.987684 0
    outer loop
      vertex 0 1.98438 3.175
      vertex -0.613189 1.88724 0
      vertex 0 1.98438 0
    endloop
  endfacet
  facet normal 0.453989 -0.891007 0
    outer loop
      vertex -1.16638 1.60538 0
      vertex -0.613189 1.88724 3.175
      vertex -1.16638 1.60538 3.175
    endloop
  endfacet
  facet normal 0.453989 -0.891007 0
    outer loop
      vertex -0.613189 1.88724 3.175
      vertex -1.16638 1.60538 0
      vertex -0.613189 1.88724 0
    endloop
  endfacet
  facet normal -0.707107 0.707107 0
    outer loop
      vertex 1.16638 -1.60538 0
      vertex 1.60538 -1.16638 3.175
      vertex 1.60538 -1.16638 0
    endloop
  endfacet
  facet normal -0.707107 0.707107 0
    outer loop
      vertex 1.60538 -1.16638 3.175
      vertex 1.16638 -1.60538 0
      vertex 1.16638 -1.60538 3.175
    endloop
  endfacet
  facet normal 0.987684 0.156459 0
    outer loop
      vertex -1.88724 -0.613189 3.175
      vertex -1.98438 0 0
      vertex -1.98438 0 3.175
    endloop
  endfacet
  facet normal 0.987684 0.156459 0
    outer loop
      vertex -1.98438 0 0
      vertex -1.88724 -0.613189 3.175
      vertex -1.88724 -0.613189 0
    endloop
  endfacet
  facet normal 0.707107 0.707107 0
    outer loop
      vertex -1.16638 -1.60538 3.175
      vertex -1.60538 -1.16638 0
      vertex -1.60538 -1.16638 3.175
    endloop
  endfacet
  facet normal 0.707107 0.707107 0
    outer loop
      vertex -1.60538 -1.16638 0
      vertex -1.16638 -1.60538 3.175
      vertex -1.16638 -1.60538 0
    endloop
  endfacet
  facet normal 0.891007 0.453989 0
    outer loop
      vertex -1.60538 -1.16638 3.175
      vertex -1.88724 -0.613189 0
      vertex -1.88724 -0.613189 3.175
    endloop
  endfacet
  facet normal 0.891007 0.453989 0
    outer loop
      vertex -1.88724 -0.613189 0
      vertex -1.60538 -1.16638 3.175
      vertex -1.60538 -1.16638 0
    endloop
  endfacet
  facet normal 0.987684 -0.156459 0
    outer loop
      vertex -1.98438 0 3.175
      vertex -1.88724 0.613189 0
      vertex -1.88724 0.613189 3.175
    endloop
  endfacet
  facet normal 0.987684 -0.156459 0
    outer loop
      vertex -1.88724 0.613189 0
      vertex -1.98438 0 3.175
      vertex -1.98438 0 0
    endloop
  endfacet
  facet normal 0.707107 -0.707107 0
    outer loop
      vertex -1.60538 1.16638 3.175
      vertex -1.16638 1.60538 0
      vertex -1.16638 1.60538 3.175
    endloop
  endfacet
  facet normal 0.707107 -0.707107 0
    outer loop
      vertex -1.16638 1.60538 0
      vertex -1.60538 1.16638 3.175
      vertex -1.60538 1.16638 0
    endloop
  endfacet
  facet normal -0.891007 0.453989 0
    outer loop
      vertex 1.60538 -1.16638 0
      vertex 1.88724 -0.613189 3.175
      vertex 1.88724 -0.613189 0
    endloop
  endfacet
  facet normal -0.891007 0.453989 0
    outer loop
      vertex 1.88724 -0.613189 3.175
      vertex 1.60538 -1.16638 0
      vertex 1.60538 -1.16638 3.175
    endloop
  endfacet
  facet normal -0.156459 0.987684 0
    outer loop
      vertex 0.613189 -1.88724 0
      vertex 0 -1.98438 3.175
      vertex 0.613189 -1.88724 3.175
    endloop
  endfacet
  facet normal -0.156459 0.987684 0
    outer loop
      vertex 0 -1.98438 3.175
      vertex 0.613189 -1.88724 0
      vertex 0 -1.98438 0
    endloop
  endfacet
  facet normal -0.453989 0.891007 0
    outer loop
      vertex 1.16638 -1.60538 0
      vertex 0.613189 -1.88724 3.175
      vertex 1.16638 -1.60538 3.175
    endloop
  endfacet
  facet normal -0.453989 0.891007 0
    outer loop
      vertex 0.613189 -1.88724 3.175
      vertex 1.16638 -1.60538 0
      vertex 0.613189 -1.88724 0
    endloop
  endfacet
  facet normal 0.156459 0.987684 -0
    outer loop
      vertex 0 -1.98438 0
      vertex -0.613189 -1.88724 3.175
      vertex 0 -1.98438 3.175
    endloop
  endfacet
  facet normal 0.156459 0.987684 0
    outer loop
      vertex -0.613189 -1.88724 3.175
      vertex 0 -1.98438 0
      vertex -0.613189 -1.88724 0
    endloop
  endfacet
  facet normal 0.891007 -0.453989 0
    outer loop
      vertex -1.88724 0.613189 3.175
      vertex -1.60538 1.16638 0
      vertex -1.60538 1.16638 3.175
    endloop
  endfacet
  facet normal 0.891007 -0.453989 0
    outer loop
      vertex -1.60538 1.16638 0
      vertex -1.88724 0.613189 3.175
      vertex -1.88724 0.613189 0
    endloop
  endfacet
  facet normal -0.987684 0.156459 0
    outer loop
      vertex 1.88724 -0.613189 0
      vertex 1.98438 0 3.175
      vertex 1.98438 0 0
    endloop
  endfacet
  facet normal -0.987684 0.156459 0
    outer loop
      vertex 1.98438 0 3.175
      vertex 1.88724 -0.613189 0
      vertex 1.88724 -0.613189 3.175
    endloop
  endfacet
  facet normal 0.0995037 -0.995037 0
    outer loop
      vertex 47.1498 -4.7625 3.175
      vertex 47.1498 -4.7625 0
      vertex 78.105 -1.66698 3.175
    endloop
  endfacet
  facet normal 0.0995037 -0.995037 0
    outer loop
      vertex 78.105 -1.66698 3.175
      vertex 94.7748 0 9.525
      vertex 78.105 -1.66698 9.525
    endloop
  endfacet
  facet normal 0.0995037 -0.995037 0
    outer loop
      vertex 78.105 -1.66698 3.175
      vertex 94.7748 0 0
      vertex 94.7748 0 9.525
    endloop
  endfacet
  facet normal 0.0995037 -0.995037 -1.00142e-07
    outer loop
      vertex 94.7748 0 0
      vertex 78.105 -1.66698 3.175
      vertex 47.1498 -4.7625 0
    endloop
  endfacet
  facet normal -0.0995037 -0.995037 0
    outer loop
      vertex -94.7748 0 9.525
      vertex -78.105 -1.66698 3.175
      vertex -78.105 -1.66698 9.525
    endloop
  endfacet
  facet normal -0.0995037 -0.995037 0
    outer loop
      vertex -94.7748 0 0
      vertex -78.105 -1.66698 3.175
      vertex -94.7748 0 9.525
    endloop
  endfacet
  facet normal -0.0995037 -0.995037 -1.00142e-07
    outer loop
      vertex -47.1498 -4.7625 0
      vertex -78.105 -1.66698 3.175
      vertex -94.7748 0 0
    endloop
  endfacet
  facet normal -0.0995037 -0.995037 0
    outer loop
      vertex -78.105 -1.66698 3.175
      vertex -47.1498 -4.7625 0
      vertex -47.1498 -4.7625 3.175
    endloop
  endfacet
endsolid OpenSCAD_Model
